<svg xmlns="http://www.w3.org/2000/svg" xmlns:xlink="http://www.w3.org/1999/xlink" version="1.1" id="Laag_1" x="0px" y="0px" width="91.387px" height="40px" viewBox="0 0 91.387 40" enable-background="new 0 0 91.387 40" xml:space="preserve">
  <g id="Nieuw_symbool">
  </g>
  <g id="Nieuw_symbool_1_">
    <g>
      <polygon fill="#555" points="57.245,34.142 51.387,20 57.245,5.858 71.387,0 85.529,5.858 91.387,20 85.529,34.142 71.387,40         "></polygon>
      <polygon fill="#777" points="57.245,34.142 51.387,20 57.245,5.858 69.205,0.904 77.676,12.377 91.387,20 85.529,34.142     71.387,40   "></polygon>
      <polygon fill="#999" points="57.245,34.142 51.387,20 57.245,5.858 68.335,7.988 75.794,16.388 84.975,23.308 85.529,34.142     71.387,40   "></polygon>
      <path fill="#bbb" d="M57.245,34.142L51.387,20l4.828-11.656c0,0,3.776,4.123,6.227,6.574s10.937,5.374,10.937,5.374    s4.687,6.387,5.702,7.403s4.783,7.138,4.783,7.138L71.387,40L57.245,34.142z"></path>
      <path fill="#ddd" d="M57.245,34.142L51.387,20l2.281-5.506c0,0,2.836-0.001,5.968,3.131s2.48,4.733,5.241,7.493    c2.76,2.76,5.199,4.162,7.403,6.366s5.396,5.911,5.396,5.911L71.387,40L57.245,34.142z"></path>
      <path fill="#fff" d="M57.245,34.142L51.387,20c0,0,2.013,1.431,4.078,3.497c2.065,2.065,3.761,1.215,6.505,3.96    c2.745,2.745,1.833,3.058,5.421,6.647c3.589,3.589,5.849,5.129,5.849,5.129L71.387,40L57.245,34.142z"></path>
      <g>
        <path fill="#fff" d="M10.524,19.797L9.49,16.403H4.292l-1.035,3.394H0L5.033,5.478H8.73l5.053,14.319H10.524z M8.769,13.867     c-0.956-3.076-1.494-4.815-1.614-5.218c-0.12-0.403-0.206-0.722-0.259-0.956c-0.214,0.832-0.829,2.891-1.843,6.174H8.769z"></path>
        <path fill="#fff" d="M18.318,19.797h-2.975V4.62h2.975V19.797z"></path>
        <path fill="#fff" d="M24.414,19.797h-2.975V4.62h2.975V19.797z"></path>
        <path fill="#fff" d="M37.445,14.325c0,1.775-0.468,3.164-1.405,4.165c-0.936,1.001-2.24,1.502-3.911,1.502     c-1.047,0-1.97-0.229-2.77-0.688c-0.8-0.458-1.414-1.117-1.844-1.975c-0.429-0.858-0.644-1.86-0.644-3.004     c0-1.782,0.465-3.167,1.395-4.155c0.93-0.989,2.237-1.483,3.92-1.483c1.047,0,1.971,0.228,2.77,0.683     c0.8,0.455,1.414,1.109,1.844,1.961C37.231,12.183,37.445,13.181,37.445,14.325z M29.905,14.325c0,1.079,0.177,1.896,0.532,2.448     c0.355,0.553,0.931,0.829,1.731,0.829c0.793,0,1.364-0.275,1.712-0.824c0.348-0.549,0.522-1.367,0.522-2.453     c0-1.079-0.176-1.889-0.527-2.429c-0.352-0.54-0.927-0.809-1.727-0.809c-0.793,0-1.365,0.268-1.717,0.804     C30.081,12.428,29.905,13.24,29.905,14.325z"></path>
        <path fill="#fff" d="M38.342,8.892H41.6l2.058,6.135c0.176,0.533,0.296,1.164,0.361,1.892h0.058     c0.072-0.67,0.211-1.3,0.419-1.892l2.019-6.135h3.19l-4.614,12.3c-0.423,1.138-1.026,1.99-1.809,2.555     c-0.784,0.566-1.699,0.848-2.746,0.848c-0.514,0-1.018-0.055-1.512-0.166v-2.36c0.358,0.084,0.748,0.127,1.171,0.127     c0.527,0,0.987-0.161,1.381-0.483c0.393-0.322,0.7-0.808,0.922-1.458l0.175-0.536L38.342,8.892z"></path>
      </g>
      <path fill="#e64" d="M51.387,20l5.858,14.142L71.387,40l-12.343-7.767L51.387,20z"></path>
    </g>
  </g>
</svg>
