<svg xmlns="http://www.w3.org/2000/svg" width="41" height="40" viewBox="0 0 41 40">
  <g fill="none">
    <polygon fill="#555555" points="6.245 34.142 .387 20 6.245 5.858 20.387 0 34.529 5.858 40.387 20 34.529 34.142 20.387 40"/>
    <polygon fill="#777777" points="6.245 34.142 .387 20 6.245 5.858 18.205 .904 26.676 12.377 40.387 20 34.529 34.142 20.387 40"/>
    <polygon fill="#999999" points="6.245 34.142 .387 20 6.245 5.858 17.335 7.988 24.794 16.388 33.975 23.308 34.529 34.142 20.387 40"/>
    <path fill="#BBBBBB" d="M6.245,34.142 L0.387,20 L5.215,8.344 C5.215,8.344 8.991,12.467 11.442,14.918 C13.893,17.369 22.379,20.292 22.379,20.292 C22.379,20.292 27.066,26.679 28.081,27.695 C29.096,28.711 32.864,34.833 32.864,34.833 L20.387,40 L6.245,34.142 Z"/>
    <path fill="#DDDDDD" d="M6.245,34.142 L0.387,20 L2.668,14.494 C2.668,14.494 5.504,14.493 8.636,17.625 C11.768,20.757 11.116,22.358 13.877,25.118 C16.637,27.878 19.076,29.28 21.28,31.484 C23.484,33.688 26.676,37.395 26.676,37.395 L20.387,40 L6.245,34.142 Z"/>
    <path fill="#FFFFFF" d="M6.245,34.142 L0.387,20 C0.387,20 2.4,21.431 4.465,23.497 C6.53,25.562 8.226,24.712 10.97,27.457 C13.715,30.202 12.803,30.515 16.391,34.104 C19.98,37.693 22.24,39.233 22.24,39.233 L20.387,40 L6.245,34.142 Z"/>
    <polygon fill="#EE6644" points=".387 20 6.245 34.142 20.387 40 8.044 32.233"/>
  </g>
</svg>
