<?xml version="1.0" encoding="UTF-8" standalone="no"?>
<!DOCTYPE svg PUBLIC "-//W3C//DTD SVG 1.1//EN" "http://www.w3.org/Graphics/SVG/1.1/DTD/svg11.dtd">
<svg width="100%" height="100%" viewBox="0 0 400 400" version="1.1" xmlns="http://www.w3.org/2000/svg" xmlns:xlink="http://www.w3.org/1999/xlink" xml:space="preserve" style="fill-rule:evenodd;clip-rule:evenodd;stroke-linejoin:round;stroke-miterlimit:1.41421;">
    <g transform="matrix(4.16667,0,0,4.16667,-366.988,-152.652)">
        <path d="M177.625,129.571L177.553,127.012C177.52,116.343 177.381,77.69 177.1,71.757C176.772,64.864 170.553,40.247 170.553,40.247L167.279,40.133L149.929,44.186C149.929,44.186 103.118,57.972 100.826,60.597C98.535,63.223 96.384,66.506 94.934,82.706C93.484,98.907 99.19,110.488 100.826,112.786C101.113,113.188 103.657,113.971 107.651,114.987L107.955,115.051C108.931,115.203 109.584,115.26 109.827,115.135L125.727,109.667L126.935,80.426C127.092,80.464 127.261,80.493 127.451,80.506C128.252,80.562 128.583,80.506 128.997,80.285C129.412,80.064 129.909,79.76 130.323,79.76C130.737,79.76 131.013,79.705 131.455,79.843C131.673,79.911 131.877,79.961 132.071,80.036L130.122,120.092C151.798,124.726 177.561,129.761 177.561,129.761C177.561,129.761 177.561,129.68 177.561,129.557L177.625,129.571ZM124.973,79.287L123.585,108.841L110.44,112.428L111.191,77.876C111.215,77.893 111.247,77.922 111.269,77.938C111.545,78.131 112.346,78.655 112.926,78.683C113.506,78.711 113.782,78.655 114.389,78.38C114.997,78.103 115.107,78.021 115.77,77.91C116.433,77.8 117.123,77.855 117.51,78.103C117.896,78.352 118.421,78.683 118.697,78.904C118.973,79.125 119.249,79.512 120.023,79.568C120.796,79.622 121.182,79.594 121.624,79.374C122.066,79.153 122.453,78.849 122.867,78.794C123.281,78.738 123.751,78.794 124.248,78.932C124.476,78.995 124.727,79.132 124.973,79.287M164.862,123.201C164.883,123.09 164.925,123.01 164.981,122.95L167.619,120.119C167.764,119.962 167.801,119.819 167.826,119.691L167.846,119.588C167.91,119.256 167.685,118.956 167.336,118.887L167.285,118.878C166.943,118.811 166.622,119.006 166.558,119.338L166.546,119.398C166.493,119.67 166.261,119.776 166.056,119.736C165.852,119.696 165.676,119.511 165.729,119.239L165.741,119.179C165.895,118.386 166.657,117.917 167.442,118.069L167.493,118.079C168.269,118.23 168.827,118.904 168.663,119.747L168.634,119.892C168.567,120.241 168.291,120.568 168.197,120.692L165.984,123.11L167.663,123.436C167.935,123.489 168.032,123.72 167.994,123.916C167.954,124.12 167.778,124.298 167.506,124.245L165.188,123.794C164.916,123.741 164.814,123.447 164.862,123.201M161.154,121.666C161.207,121.394 161.438,121.297 161.642,121.337C161.846,121.376 162.024,121.552 161.971,121.825C161.913,122.124 162.174,122.422 162.506,122.487L162.591,122.503C162.932,122.57 163.287,122.338 163.352,122.005L163.46,121.451C163.604,120.709 163.354,120.581 162.774,120.468C162.476,120.41 162.379,120.179 162.419,119.975C162.457,119.779 162.633,119.602 162.932,119.66C163.375,119.746 163.781,119.799 163.925,119.056L163.963,118.861C164.041,118.46 163.774,118.195 163.441,118.131C163.109,118.066 162.767,118.141 162.695,118.508C162.642,118.78 162.41,118.886 162.206,118.846C162.001,118.806 161.825,118.622 161.878,118.349C162.051,117.463 162.874,117.181 163.598,117.322C164.332,117.465 164.961,118.091 164.78,119.019L164.742,119.216C164.629,119.795 164.398,120.122 164.122,120.315C164.333,120.639 164.381,121.072 164.277,121.61L164.169,122.164C164.013,122.965 163.271,123.466 162.436,123.303L162.351,123.287C161.498,123.121 161.015,122.383 161.154,121.666M157.251,120.996C157.303,120.732 157.534,120.635 157.746,120.676C157.925,120.711 158.082,120.857 158.08,121.095C158.087,121.38 158.288,121.667 158.595,121.726L158.68,121.743C159.013,121.808 159.35,121.572 159.415,121.24L159.592,120.328C159.444,120.405 159.172,120.44 158.942,120.396L158.856,120.379C158.064,120.225 157.548,119.471 157.702,118.678L157.893,117.698C158.047,116.905 158.809,116.391 159.602,116.545L159.687,116.562C160.48,116.716 160.994,117.478 160.84,118.271L160.232,121.399C160.078,122.192 159.317,122.697 158.524,122.543L158.439,122.527C157.519,122.347 157.16,121.465 157.251,120.996M154.414,117.075C154.431,116.99 154.473,116.91 154.547,116.845L155.506,115.962C155.689,115.794 155.844,115.815 155.955,115.836L156.278,115.899C156.491,115.941 156.572,116.16 156.531,116.373L155.525,121.545C155.472,121.817 155.243,121.905 155.039,121.865C154.835,121.826 154.655,121.658 154.708,121.385L155.551,117.049L155.128,117.453C155.009,117.562 154.897,117.593 154.769,117.569C154.539,117.524 154.369,117.305 154.414,117.075M148.929,119.653C148.965,119.464 149.159,119.363 149.334,119.397C149.67,119.462 149.573,119.996 150.042,120.087L150.162,120.111C150.554,120.187 150.74,120.055 150.783,119.831C150.857,119.453 150.492,119.346 150.216,119.234C149.75,119.049 149.181,118.728 149.297,118.132L149.32,118.013C149.455,117.321 150.256,117.23 150.705,117.317L150.733,117.322C151.356,117.444 151.748,117.89 151.701,118.134C151.669,118.296 151.508,118.417 151.319,118.38C151.053,118.328 151.045,118.072 150.604,117.987L150.575,117.981C150.267,117.921 150.018,118.004 149.987,118.165L149.974,118.235C149.876,118.739 151.708,118.659 151.454,119.962C151.299,120.759 150.552,120.868 150.034,120.768L149.915,120.744C149.466,120.657 149.055,120.309 148.934,119.814C148.922,119.76 148.918,119.709 148.929,119.653M145.804,118.755L146.028,117.606C146.153,116.962 146.77,116.552 147.414,116.677L147.463,116.687C147.575,116.708 147.804,116.803 147.925,116.965L148.18,115.656C148.223,115.432 148.413,115.353 148.581,115.385C148.748,115.418 148.894,115.563 148.851,115.786L148.025,120.036C147.983,120.253 147.793,120.332 147.625,120.3C147.43,120.261 147.351,120.181 147.324,120.059C147.145,120.192 146.904,120.159 146.792,120.137L146.743,120.128C146.099,120.003 145.679,119.399 145.804,118.755M142.495,118.961L143.036,116.175C143.08,115.951 143.269,115.871 143.437,115.904C143.57,115.93 143.682,115.988 143.737,116.151C143.97,116.001 144.116,116.036 144.263,116.065L144.326,116.077C145.02,116.212 145.382,116.812 145.257,117.456L144.874,119.423C144.831,119.647 144.642,119.719 144.475,119.687C144.314,119.656 144.159,119.517 144.203,119.293L144.585,117.325C144.639,117.052 144.471,116.794 144.197,116.741L144.134,116.729C143.861,116.676 143.601,116.851 143.548,117.124L143.166,119.091C143.122,119.315 142.934,119.387 142.766,119.355C142.598,119.322 142.451,119.185 142.495,118.961M141.946,114.939C141.779,114.906 141.639,114.763 141.682,114.546L141.71,114.399C141.754,114.175 141.936,114.094 142.104,114.126C142.272,114.159 142.418,114.303 142.375,114.528L142.346,114.675C142.304,114.892 142.114,114.971 141.946,114.939M140.877,118.646L141.419,115.861C141.462,115.636 141.652,115.557 141.82,115.59C141.981,115.621 142.134,115.767 142.09,115.991L141.549,118.777C141.505,119.001 141.31,119.072 141.149,119.041C140.981,119.008 140.834,118.87 140.877,118.646M139.495,115.138L139.523,115.143C140.147,115.264 140.539,115.711 140.491,115.956C140.46,116.117 140.299,116.238 140.11,116.201C139.844,116.15 139.836,115.893 139.394,115.807L139.366,115.802C139.058,115.742 138.809,115.825 138.778,115.986L138.764,116.056C138.666,116.56 140.498,116.48 140.245,117.783C140.09,118.581 139.343,118.69 138.825,118.589L138.705,118.566C138.257,118.478 137.846,118.13 137.724,117.634C137.713,117.582 137.708,117.53 137.719,117.474C137.756,117.285 137.95,117.184 138.125,117.218C138.46,117.283 138.364,117.817 138.833,117.908L138.952,117.931C139.345,118.008 139.53,117.877 139.574,117.653C139.647,117.274 139.283,117.167 139.006,117.055C138.541,116.87 137.972,116.549 138.088,115.953L138.111,115.834C138.245,115.142 139.047,115.05 139.495,115.138M168.94,103.208L139.27,97.801L139.642,81.231C139.803,81.346 139.955,81.466 140.068,81.579C140.402,81.914 141.479,82.467 141.921,82.467C142.363,82.467 142.86,82.526 143.578,82.052C144.296,81.579 144.765,81.579 145.152,81.579C145.538,81.579 146.367,81.776 146.698,82.052C147.029,82.328 147.582,82.853 148.051,83.074C148.521,83.295 149.156,83.544 149.763,83.405C150.371,83.267 150.647,83.074 151.061,82.881C151.475,82.688 151.972,82.577 152.359,82.549C152.745,82.522 153.463,82.688 153.767,82.853C154.071,83.019 154.899,84.095 155.673,84.261C156.446,84.427 157.219,84.455 157.55,84.261C157.882,84.068 158.406,83.792 158.765,83.681C159.124,83.571 159.842,83.516 160.339,83.626C160.836,83.737 161.251,84.013 161.527,84.261C161.803,84.51 162.438,84.952 162.908,85.09C163.377,85.229 164.04,85.476 164.509,85.283C164.979,85.09 165.586,84.842 166.028,84.675C166.47,84.51 166.912,84.51 167.353,84.565C167.712,84.61 168.329,84.854 168.687,85.077L168.94,103.208ZM169.018,108.784L139.159,102.737L139.22,100.03L168.964,104.956L169.018,108.784ZM146.699,117.737L146.476,118.885C146.423,119.158 146.598,119.418 146.871,119.471L146.927,119.482C147.2,119.535 147.464,119.339 147.513,119.087L147.736,117.938C147.789,117.665 147.614,117.405 147.341,117.352L147.285,117.342C147.011,117.288 146.752,117.463 146.699,117.737M159.832,119.092L160.025,118.104C160.091,117.762 159.871,117.437 159.53,117.37L159.445,117.354C159.103,117.287 158.777,117.507 158.711,117.848L158.519,118.837C158.453,119.178 158.673,119.504 159.014,119.571L159.099,119.587C159.44,119.654 159.766,119.433 159.832,119.092" style="fill:rgb(103,101,102);fill-rule:nonzero;"/>
    </g>
</svg>
